<svg width="42" height="136" viewBox="0 0 42 136" fill="none" xmlns="http://www.w3.org/2000/svg">
<path d="M0.268279 3.00434C-0.283997 2.04648 0.0437487 0.821664 1.00032 0.268641C1.95689 -0.284381 3.18005 0.0438071 3.73233 1.00167L41.7317 66.9075C42.284 67.8654 41.9563 69.0902 40.9997 69.6432C40.0431 70.1962 38.82 69.868 38.2677 68.9102L0.268279 3.00434Z" fill="white"/>
<path d="M38.2677 67.0898C38.82 66.132 40.0431 65.8038 40.9997 66.3568C41.9563 66.9098 42.284 68.1346 41.7317 69.0925L3.73233 134.998C3.18005 135.956 1.95689 136.284 1.00032 135.731C0.0437487 135.178 -0.283996 133.954 0.26828 132.996L38.2677 67.0898Z" fill="white"/>
</svg>
